<?xml version="1.0" encoding="UTF-8" standalone="no"?><!DOCTYPE svg PUBLIC "-//W3C//DTD SVG 1.1//EN" "http://www.w3.org/Graphics/SVG/1.1/DTD/svg11.dtd"><svg width="100%" height="100%" viewBox="0 0 1280 300" version="1.1" xmlns="http://www.w3.org/2000/svg" xmlns:xlink="http://www.w3.org/1999/xlink" xml:space="preserve" xmlns:serif="http://www.serif.com/" style="fill-rule:evenodd;clip-rule:evenodd;stroke-linejoin:round;stroke-miterlimit:1.41421;"><g transform="matrix(1,0,0,1,-316.214,122.316)"><g transform="matrix(288,0,0,288,640.05,128.484)"><path d="M0.228,-0.122l0.232,0l0.03,0.122l0.177,0l-0.162,-0.667l-0.19,0l-0.33,0.667l0.187,0l0.056,-0.122Zm0.062,-0.133l0.063,-0.138c0.01,-0.024 0.019,-0.047 0.03,-0.079c0.005,0.037 0.006,0.044 0.018,0.101l0.026,0.116l-0.137,0Z" style="fill:#00afcc;fill-rule:nonzero;"/></g><g transform="matrix(288,0,0,288,840.21,128.484)"><path d="M0.252,-0.447l-0.165,0l-0.055,0.447l0.165,0l0.023,-0.19c0.006,-0.047 0.012,-0.066 0.024,-0.085c0.017,-0.025 0.046,-0.038 0.083,-0.038c0.029,0 0.049,0.006 0.075,0.02l0.018,-0.153c-0.014,-0.001 -0.025,-0.001 -0.032,-0.001c-0.063,0 -0.098,0.014 -0.149,0.061l0.013,-0.061Z" style="fill:#4d4d4d;fill-rule:nonzero;"/></g><g transform="matrix(288,0,0,288,957.426,128.484)"><path d="M0.193,-0.713c-0.055,0 -0.1,0.044 -0.1,0.097c0,0.055 0.044,0.099 0.098,0.099c0.054,0 0.097,-0.044 0.097,-0.099c0,-0.054 -0.042,-0.097 -0.095,-0.097Zm0.059,0.266l-0.165,0l-0.055,0.447l0.165,0l0.055,-0.447Z" style="fill:#4d4d4d;fill-rule:nonzero;"/></g><g transform="matrix(288,0,0,288,1039.51,128.484)"><path d="M0.417,-0.429c-0.043,-0.021 -0.086,-0.031 -0.135,-0.031c-0.143,0 -0.247,0.105 -0.247,0.25c0,0.131 0.089,0.223 0.214,0.223c0.037,0 0.06,-0.005 0.117,-0.024l0.017,-0.14c-0.035,0.025 -0.057,0.034 -0.088,0.034c-0.056,0 -0.092,-0.037 -0.092,-0.096c0,-0.068 0.045,-0.117 0.106,-0.117c0.035,0 0.06,0.011 0.091,0.04l0.017,-0.139Z" style="fill:#4d4d4d;fill-rule:nonzero;"/></g><g transform="matrix(288,0,0,288,1163.35,128.484)"><path d="M0.525,-0.19c0.001,-0.018 0.002,-0.034 0.002,-0.041c0,-0.143 -0.086,-0.229 -0.229,-0.229c-0.081,0 -0.147,0.025 -0.194,0.074c-0.044,0.046 -0.07,0.113 -0.07,0.181c0,0.136 0.087,0.218 0.232,0.218c0.077,0 0.14,-0.021 0.184,-0.061c0.027,-0.026 0.043,-0.051 0.062,-0.101l-0.18,0c-0.006,0.031 -0.027,0.046 -0.063,0.046c-0.025,0 -0.048,-0.009 -0.062,-0.023c-0.012,-0.014 -0.016,-0.03 -0.016,-0.064l0.334,0Zm-0.323,-0.093c0.01,-0.046 0.038,-0.069 0.083,-0.069c0.044,0 0.07,0.024 0.073,0.069l-0.156,0Z" style="fill:#4d4d4d;fill-rule:nonzero;"/></g></g></svg>